<?xml version="1.0" standalone="no"?>
<!DOCTYPE svg PUBLIC "-//W3C//DTD SVG 20010904//EN"
 "http://www.w3.org/TR/2001/REC-SVG-20010904/DTD/svg10.dtd">
<svg version="1.0" xmlns="http://www.w3.org/2000/svg"
 width="427.000000pt" height="441.000000pt" viewBox="0 0 427.000000 441.000000"
 preserveAspectRatio="xMidYMid meet">
<metadata>
Created by potrace 1.16, written by Peter Selinger 2001-2019
</metadata>
<g transform="translate(0.000000,441.000000) scale(0.100000,-0.100000)"
fill="blue" stroke="none">
<path d="M1995 3840 c-586 -54 -1101 -412 -1360 -944 -97 -199 -152 -405 -162
-608 l-6 -118 105 0 105 0 6 78 c21 256 108 523 237 722 47 71 166 214 226
271 111 105 315 232 477 298 41 17 47 24 47 49 0 29 31 71 53 73 7 0 21 2 31
4 12 2 32 -9 53 -30 30 -30 36 -32 70 -24 21 4 91 13 157 19 264 25 561 -36
796 -162 67 -36 217 -132 230 -147 3 -3 32 -29 66 -58 l61 -52 74 75 74 75
-60 55 c-78 70 -219 170 -320 226 -285 156 -636 228 -960 198z"/>
<path d="M1701 3624 c-45 -57 -10 -121 60 -111 26 3 42 0 50 -9 6 -8 16 -14
22 -14 5 0 3 8 -6 18 -12 13 -15 28 -11 54 5 30 2 41 -19 62 -34 34 -70 33
-96 0z"/>
</g>
</svg>
